<?xml version="1.0" encoding="UTF-8"?>
<svg width="132px" height="37px" viewBox="0 0 132 37" version="1.1" xmlns="http://www.w3.org/2000/svg" xmlns:xlink="http://www.w3.org/1999/xlink">
    <!-- Generator: Sketch 52.6 (67491) - http://www.bohemiancoding.com/sketch -->
    <title>logo-horizontal</title>
    <desc>Created with Sketch.</desc>
    <g id="Page-1" stroke="none" stroke-width="1" fill="none" fill-rule="evenodd">
        <g id="pre-landing-1" transform="translate(-166.000000, -37.000000)">
            <g id="logo-horizontal" transform="translate(166.000000, 37.000000)">
                <path d="M60.2347276,7.87996738 L62.5667588,7.87996738 L55.6526963,24.3213736 L55.1253526,24.3213736 L48.0706651,7.87996738 L50.4261338,7.87996738 L55.3480088,19.3760611 L60.2347276,7.87996738 Z M70.9456651,24.2510611 L70.9456651,22.8799674 C70.4925378,23.3721573 69.9749649,23.754966 69.3929307,24.0284049 C68.8108965,24.3018438 68.2308242,24.4385611 67.6526963,24.4385611 C66.9730054,24.4385611 66.3460586,24.268641 65.7718369,23.9287955 C65.1976153,23.5889501 64.7640259,23.1280172 64.4710557,22.545983 C64.1780855,21.9639488 64.0316026,20.9971616 64.0316026,19.6455924 L64.0316026,13.4698111 L66.1644151,13.4698111 L66.1644151,19.6221549 C66.1644151,20.754973 66.3265228,21.5459808 66.6507432,21.9952018 C66.9749636,22.4444228 67.5433173,22.6690299 68.3558213,22.6690299 C69.3714514,22.6690299 70.234724,22.1729411 70.9456651,21.1807486 L70.9456651,13.4698111 L73.0784776,13.4698111 L73.0784776,24.2510611 L70.9456651,24.2510611 Z M85.2659776,19.0479361 L77.6839463,19.0479361 C77.7386341,20.0791913 78.0843338,20.8994956 78.7210557,21.5088736 C79.3577776,22.1182517 80.180035,22.4229361 81.1878526,22.4229361 C82.5941096,22.4229361 83.8909716,21.9854405 85.0784776,21.1104361 L85.0784776,23.1963736 C84.4222243,23.6338758 83.7718402,23.9463727 83.1273057,24.1338736 C82.4827712,24.3213746 81.7269194,24.4151236 80.8597276,24.4151236 C79.6722216,24.4151236 78.7112937,24.1690323 77.9769151,23.6768424 C77.2425364,23.1846524 76.6546516,22.5225497 76.2132432,21.6905143 C75.7718347,20.8584788 75.5511338,19.8955979 75.5511338,18.8018424 C75.5511338,17.1612092 76.0159729,15.8272381 76.9456651,14.7998893 C77.8753572,13.7725404 79.0823764,13.2588736 80.5667588,13.2588736 C81.9964535,13.2588736 83.1370671,13.7588686 83.9886338,14.7588736 C84.8402006,15.7588786 85.2659776,17.098709 85.2659776,18.7784049 L85.2659776,19.0479361 Z M77.7308213,17.7705924 L83.1566026,17.7705924 C83.1019148,16.9190256 82.8480111,16.2627822 82.3948838,15.8018424 C81.9417566,15.3409026 81.3323876,15.1104361 80.5667588,15.1104361 C79.80113,15.1104361 79.1741831,15.3409026 78.6858994,15.8018424 C78.1976158,16.2627822 77.8792596,16.9190256 77.7308213,17.7705924 Z M87.8206651,13.4698111 L87.8206651,12.8252799 C87.8206651,11.0908962 88.189802,9.79794039 88.9280869,8.94637363 C89.6663719,8.09480688 90.5511287,7.66902988 91.5823838,7.66902988 C92.0276985,7.66902988 92.555037,7.73934168 93.1644151,7.87996738 L93.1644151,9.96590488 C92.8206633,9.84090426 92.4925416,9.77840488 92.1800401,9.77840488 C91.3440984,9.77840488 90.7640261,10.0010589 90.4398057,10.4463736 C90.1155853,10.8916884 89.9534776,11.6846492 89.9534776,12.8252799 L89.9534776,13.4698111 L91.8753526,13.4698111 L91.8753526,15.3916861 L89.9534776,15.3916861 L89.9534776,24.2510611 L87.8206651,24.2510611 L87.8206651,15.3916861 L86.2737901,15.3916861 L86.2737901,13.4698111 L87.8206651,13.4698111 Z M98.7308213,13.4463736 C100.371455,13.4463736 101.734722,13.9756652 102.820665,15.0342643 C103.906608,16.0928633 104.449571,17.4229281 104.449571,19.0244986 C104.449571,20.5791939 103.898796,21.8701966 102.797228,22.8975455 C101.69566,23.9248944 100.308955,24.4385611 98.6370713,24.4385611 C97.0198757,24.4385611 95.6683267,23.917082 94.5823838,22.874108 C93.4964409,21.831134 92.9534776,20.5284127 92.9534776,18.9659049 C92.9534776,17.387772 93.5023002,16.073332 94.5999619,15.0225455 C95.6976237,13.971759 97.074563,13.4463736 98.7308213,13.4463736 Z M98.6136338,15.3682486 C97.5901912,15.3682486 96.7503558,15.7041828 96.0941026,16.3760611 C95.4378493,17.0479395 95.1097276,17.9033997 95.1097276,18.9424674 C95.1097276,19.9737225 95.4456617,20.815511 96.1175401,21.467858 C96.7894184,22.120205 97.652691,22.4463736 98.7073838,22.4463736 C99.7542641,22.4463736 100.611677,22.1162988 101.279649,21.4561393 C101.947622,20.7959797 102.281603,19.950285 102.281603,18.9190299 C102.281603,17.8955873 101.93395,17.0479395 101.238634,16.3760611 C100.543318,15.7041828 99.6683266,15.3682486 98.6136338,15.3682486 Z M109.101915,13.4698111 L109.101915,15.9424674 L109.219103,15.7549674 C110.250358,14.0908966 111.281597,13.2588736 112.312853,13.2588736 C113.117544,13.2588736 113.957379,13.6651196 114.832384,14.4776236 L113.707384,16.3526236 C112.965193,15.6494951 112.277699,15.2979361 111.644884,15.2979361 C110.95738,15.2979361 110.361683,15.6260579 109.857774,16.2823111 C109.353866,16.9385644 109.101915,17.7159004 109.101915,18.6143424 L109.101915,24.2510611 L106.957384,24.2510611 L106.957384,13.4698111 L109.101915,13.4698111 Z M125.156603,16.4229361 L125.156603,24.2510611 L123.012071,24.2510611 L123.012071,18.2510611 C123.012071,17.0557427 122.851917,16.2217666 122.531603,15.749108 C122.211288,15.2764494 121.6527,15.0401236 120.855821,15.0401236 C120.410507,15.0401236 120.002308,15.1416851 119.631212,15.3448111 C119.260116,15.5479371 118.836292,15.9073086 118.359728,16.4229361 L118.359728,24.2510611 L116.226915,24.2510611 L116.226915,13.4698111 L118.359728,13.4698111 L118.359728,14.8877799 C119.44567,13.801837 120.50816,13.2588736 121.547228,13.2588736 C122.914422,13.2588736 123.973005,13.9073046 124.723009,15.2041861 C125.86364,13.8916796 127.055034,13.2354361 128.297228,13.2354361 C129.344108,13.2354361 130.205427,13.6182448 130.881212,14.3838736 C131.556997,15.1495025 131.894884,16.3174595 131.894884,17.8877799 L131.894884,24.2510611 L129.762071,24.2510611 L129.762071,17.8643424 C129.762071,16.9659004 129.578479,16.2784073 129.21129,15.8018424 C128.844101,15.3252775 128.316762,15.0869986 127.629259,15.0869986 C126.746442,15.0869986 125.922231,15.5323067 125.156603,16.4229361 Z" id="Vueform" fill="#1C1C1C"></path>
                <g id="logo" fill-rule="nonzero">
                    <path d="M40.7617253,1.03848223 C40.6848339,0.915878582 40.5687223,0.854576758 40.4133904,0.854576758 L32.3564285,0.854576758 L20.3166034,21.8386422 L12.0238252,21.8386422 L20.1678639,36.0193606 C20.250318,36.1503001 20.3624692,36.2157698 20.5043175,36.2157698 C20.6461658,36.2157698 20.7594205,36.148989 20.8440816,36.0154275 L40.7617253,1.44140453 C40.8386167,1.29539331 40.8386167,1.16108588 40.7617253,1.03848223 Z" id="Path-6" fill="#41B883"></path>
                    <path d="M0.246076082,1.03901798 C0.169505592,1.1619788 0.170772892,1.29751502 0.249877982,1.44562664 L10.3348998,18.9241887 L18.5933372,18.9241887 L22.9770014,11.3466095 L14.6932349,11.3466095 L13.0527273,8.43215594 L24.5943813,8.42509202 L28.9625399,0.854576758 L0.593789778,0.854576758 C0.438551137,0.854576758 0.322646571,0.916057166 0.246076082,1.03901798 Z" id="Path-7" fill="#35495E"></path>
                </g>
            </g>
        </g>
    </g>
</svg>