<?xml version="1.0" encoding="UTF-8"?>
<svg width="41px" height="37px" viewBox="0 0 41 37" version="1.1" xmlns="http://www.w3.org/2000/svg" xmlns:xlink="http://www.w3.org/1999/xlink">
    <!-- Generator: Sketch 52.6 (67491) - http://www.bohemiancoding.com/sketch -->
    <title>logo</title>
    <desc>Created with Sketch.</desc>
    <g id="Page-1" stroke="none" stroke-width="1" fill="none" fill-rule="evenodd">
        <g id="pre-landing-1" transform="translate(-166.000000, -37.000000)" fill-rule="nonzero">
            <g id="logo-horizontal" transform="translate(166.000000, 37.000000)">
                <g id="logo">
                    <path d="M40.7617253,1.03848223 C40.6848339,0.915878582 40.5687223,0.854576758 40.4133904,0.854576758 L32.3564285,0.854576758 L20.3166034,21.8386422 L12.0238252,21.8386422 L20.1678639,36.0193606 C20.250318,36.1503001 20.3624692,36.2157698 20.5043175,36.2157698 C20.6461658,36.2157698 20.7594205,36.148989 20.8440816,36.0154275 L40.7617253,1.44140453 C40.8386167,1.29539331 40.8386167,1.16108588 40.7617253,1.03848223 Z" id="Path-6" fill="#41B883"></path>
                    <path d="M0.246076082,1.03901798 C0.169505592,1.1619788 0.170772892,1.29751502 0.249877982,1.44562664 L10.3348998,18.9241887 L18.5933372,18.9241887 L22.9770014,11.3466095 L14.6932349,11.3466095 L13.0527273,8.43215594 L24.5943813,8.42509202 L28.9625399,0.854576758 L0.593789778,0.854576758 C0.438551137,0.854576758 0.322646571,0.916057166 0.246076082,1.03901798 Z" id="Path-7" fill="#35495E"></path>
                </g>
            </g>
        </g>
    </g>
</svg>